<svg xmlns="http://www.w3.org/2000/svg" version="1.1" xmlns:xlink="http://www.w3.org/1999/xlink" xmlns:svgjs="http://svgjs.dev/svgjs" width="1000" height="1000" viewBox="0 0 1000 1000"><rect width="1000" height="1000" fill="#ffffff"></rect><g transform="matrix(0.7,0,0,0.7,149.57575757575756,401.18118367124276)"><svg viewBox="0 0 396 112" data-background-color="#ffffff" preserveAspectRatio="xMidYMid meet" height="282" width="1000" xmlns="http://www.w3.org/2000/svg" xmlns:xlink="http://www.w3.org/1999/xlink"><g id="tight-bounds" transform="matrix(1,0,0,1,0.2400000000000091,0.06741351986227073)"><svg viewBox="0 0 395.52 111.86517296027547" height="111.86517296027547" width="395.52"><g><svg viewBox="0 0 395.52 111.86517296027547" height="111.86517296027547" width="395.52"><g><svg viewBox="0 0 397.4975999999999 112.42449882507684" height="111.86517296027547" width="395.52"><g><rect width="397.4975999999999" height="3.44341391273982" x="0" y="61.78356231574725" fill="#000000" opacity="1" stroke-width="0" stroke="transparent" fill-opacity="1" class="rect-bu-0" data-fill-palette-color="secondary" rx="1%" id="bu-0" data-palette-color="#b10dc9"></rect></g><g transform="matrix(1,0,0,1,0.9887999999999693,74.24114877492639)"><svg viewBox="0 0 395.52 38.18335005015045" height="38.18335005015045" width="395.52"><g><svg viewBox="0 0 395.52 38.18335005015045" height="38.18335005015045" width="395.52"><g><svg viewBox="0 0 395.52 38.18335005015045" height="38.18335005015045" width="395.52"><g transform="matrix(1,0,0,1,0,0)"><svg width="395.52" viewBox="1.6 -36.8 398.77 38.5" height="38.18335005015045" data-palette-color="#008080"><path d="M16.4 1.7L1.6-36.55 10.1-36.55 17.95-13.45 16.8-13.95 23.65-31 27-21.05 16.4 1.7ZM35.35 1.6L20.05-36.55 27.25-36.55 36.3-14.2 35-14.4 41.75-36.55 49.55-36.55 35.35 1.6ZM61 0.6L61 0.6Q57 0.6 54.22-0.9 51.45-2.4 50-5.05 48.55-7.7 48.55-11.15L48.55-11.15Q48.55-14.45 50.25-17.1 51.95-19.75 54.8-21.33 57.65-22.9 61.15-22.9L61.15-22.9Q65.85-22.9 68.87-20.18 71.9-17.45 72.8-12.3L72.8-12.3 55.8-6.9 54.25-10.7 66.55-14.85 65.1-14.2Q64.7-15.5 63.67-16.48 62.65-17.45 60.6-17.45L60.6-17.45Q59.05-17.45 57.87-16.73 56.7-16 56.07-14.68 55.45-13.35 55.45-11.55L55.45-11.55Q55.45-9.5 56.2-8.13 56.95-6.75 58.25-6.05 59.55-5.35 61.15-5.35L61.15-5.35Q62.3-5.35 63.37-5.75 64.45-6.15 65.5-6.8L65.5-6.8 68.6-1.6Q66.85-0.6 64.82 0 62.8 0.6 61 0.6ZM85 0.45L85 0.45Q82.3 0.45 79.97-0.5 77.65-1.45 76.05-3.15L76.05-3.15 78.95-7Q80.55-5.55 81.92-4.93 83.3-4.3 84.4-4.3L84.4-4.3Q85.25-4.3 85.92-4.48 86.6-4.65 87-5.03 87.4-5.4 87.4-6L87.4-6Q87.4-6.85 86.72-7.35 86.05-7.85 85-8.18 83.95-8.5 82.75-8.85L82.75-8.85Q79.75-9.8 78.42-11.63 77.1-13.45 77.1-15.6L77.1-15.6Q77.1-17.25 77.97-18.93 78.85-20.6 80.77-21.73 82.7-22.85 85.75-22.85L85.75-22.85Q88.5-22.85 90.4-22.3 92.3-21.75 94-20.5L94-20.5 91.35-16.4Q90.4-17.15 89.22-17.68 88.05-18.2 87.05-18.25L87.05-18.25Q86.15-18.3 85.52-18.05 84.9-17.8 84.55-17.4 84.2-17 84.2-16.55L84.2-16.55Q84.15-15.6 84.92-15.05 85.7-14.5 86.9-14.2 88.1-13.9 89.25-13.5L89.25-13.5Q90.85-13 92-12.15 93.15-11.3 93.77-10.13 94.4-8.95 94.4-7.3L94.4-7.3Q94.4-5.3 93.37-3.53 92.35-1.75 90.27-0.65 88.2 0.45 85 0.45ZM102.29-21.95L102.29-31.45 109.29-31.45 109.29-21.95 114.59-21.95 114.59-16.5 109.29-16.5 109.29 0 102.29 0 102.29-16.5 98.89-16.5 98.89-21.95 102.29-21.95ZM119.94-21.85L126.29-21.85 126.84-18 126.74-18.3Q128.04-20.5 129.99-21.73 131.94-22.95 134.69-22.95L134.69-22.95Q136.49-22.95 137.87-22.45 139.24-21.95 140.19-20.98 141.14-20 141.49-18.45L141.49-18.45 141.24-18.4Q142.64-20.45 144.62-21.7 146.59-22.95 148.74-22.95L148.74-22.95Q151.99-22.95 153.92-21.13 155.84-19.3 155.89-16.4L155.89-16.4 155.89 0 148.94 0 148.94-13.5Q148.89-14.95 148.49-15.88 148.09-16.8 146.64-16.9L146.64-16.9Q144.94-16.9 143.77-15.73 142.59-14.55 142.02-12.73 141.44-10.9 141.44-8.95L141.44-8.95 141.44 0 134.44 0 134.44-13.5Q134.39-14.95 133.92-15.88 133.44-16.8 131.99-16.9L131.99-16.9Q130.34-16.9 129.22-15.73 128.09-14.55 127.52-12.75 126.94-10.95 126.94-9.05L126.94-9.05 126.94 0 119.94 0 119.94-21.85ZM161.39-11.2L161.39-11.2Q161.39-14.55 162.96-17.2 164.54-19.85 167.39-21.38 170.24-22.9 173.94-22.9L173.94-22.9Q177.69-22.9 180.44-21.38 183.19-19.85 184.66-17.2 186.14-14.55 186.14-11.2L186.14-11.2Q186.14-7.85 184.66-5.18 183.19-2.5 180.44-0.95 177.69 0.6 173.84 0.6L173.84 0.6Q170.24 0.6 167.41-0.8 164.59-2.2 162.99-4.85 161.39-7.5 161.39-11.2ZM168.44-11.15L168.44-11.15Q168.44-9.45 169.14-8.08 169.84-6.7 171.04-5.9 172.24-5.1 173.74-5.1L173.74-5.1Q175.39-5.1 176.59-5.9 177.79-6.7 178.44-8.08 179.09-9.45 179.09-11.15L179.09-11.15Q179.09-12.9 178.44-14.25 177.79-15.6 176.59-16.4 175.39-17.2 173.74-17.2L173.74-17.2Q172.24-17.2 171.04-16.4 169.84-15.6 169.14-14.25 168.44-12.9 168.44-11.15ZM191.64-21.85L197.99-21.85 198.54-17.95 198.44-18.3Q199.59-20.35 201.69-21.63 203.79-22.9 206.84-22.9L206.84-22.9Q209.94-22.9 212.01-21.08 214.09-19.25 214.14-16.35L214.14-16.35 214.14 0 207.14 0 207.14-13.75Q207.09-15.2 206.36-16.07 205.64-16.95 203.94-16.95L203.94-16.95Q202.34-16.95 201.14-15.9 199.94-14.85 199.29-13.05 198.64-11.25 198.64-8.9L198.64-8.9 198.64 0 191.64 0 191.64-21.85ZM223.38-21.95L223.38-31.45 230.38-31.45 230.38-21.95 235.68-21.95 235.68-16.5 230.38-16.5 230.38 0 223.38 0 223.38-16.5 219.98-16.5 219.98-21.95 223.38-21.95ZM282.13-36.8L289.38-36.8 289.38 0 282.13 0 282.13-14.95 265.68-14.95 265.68 0 258.43 0 258.43-36.8 265.68-36.8 265.68-21.95 282.13-21.95 282.13-36.8ZM296.02-11.2L296.02-11.2Q296.02-14.55 297.6-17.2 299.18-19.85 302.02-21.38 304.88-22.9 308.57-22.9L308.57-22.9Q312.32-22.9 315.07-21.38 317.82-19.85 319.3-17.2 320.77-14.55 320.77-11.2L320.77-11.2Q320.77-7.85 319.3-5.18 317.82-2.5 315.07-0.95 312.32 0.6 308.48 0.6L308.48 0.6Q304.88 0.6 302.05-0.8 299.23-2.2 297.63-4.85 296.02-7.5 296.02-11.2ZM303.07-11.15L303.07-11.15Q303.07-9.45 303.77-8.08 304.48-6.7 305.68-5.9 306.88-5.1 308.38-5.1L308.38-5.1Q310.02-5.1 311.23-5.9 312.43-6.7 313.07-8.08 313.73-9.45 313.73-11.15L313.73-11.15Q313.73-12.9 313.07-14.25 312.43-15.6 311.23-16.4 310.02-17.2 308.38-17.2L308.38-17.2Q306.88-17.2 305.68-16.4 304.48-15.6 303.77-14.25 303.07-12.9 303.07-11.15ZM333.32 1.05L333.32 1.05Q330.37 1.05 328.37-0.78 326.37-2.6 326.27-5.5L326.27-5.5 326.27-21.85 333.27-21.85 333.27-8.1Q333.37-6.65 334.02-5.78 334.67-4.9 336.22-4.9L336.22-4.9Q337.77-4.9 338.9-5.95 340.02-7 340.65-8.83 341.27-10.65 341.27-12.95L341.27-12.95 341.27-21.85 348.27-21.85 348.27 0 341.92 0 341.37-4 341.47-3.55Q340.72-2.2 339.57-1.15 338.42-0.1 336.85 0.48 335.27 1.05 333.32 1.05ZM362.57 0.45L362.57 0.45Q359.87 0.45 357.55-0.5 355.22-1.45 353.62-3.15L353.62-3.15 356.52-7Q358.12-5.55 359.5-4.93 360.87-4.3 361.97-4.3L361.97-4.3Q362.82-4.3 363.5-4.48 364.17-4.65 364.57-5.03 364.97-5.4 364.97-6L364.97-6Q364.97-6.85 364.3-7.35 363.62-7.85 362.57-8.18 361.52-8.5 360.32-8.85L360.32-8.85Q357.32-9.8 356-11.63 354.67-13.45 354.67-15.6L354.67-15.6Q354.67-17.25 355.55-18.93 356.42-20.6 358.35-21.73 360.27-22.85 363.32-22.85L363.32-22.85Q366.07-22.85 367.97-22.3 369.87-21.75 371.57-20.5L371.57-20.5 368.92-16.4Q367.97-17.15 366.8-17.68 365.62-18.2 364.62-18.25L364.62-18.25Q363.72-18.3 363.1-18.05 362.47-17.8 362.12-17.4 361.77-17 361.77-16.55L361.77-16.55Q361.72-15.6 362.5-15.05 363.27-14.5 364.47-14.2 365.67-13.9 366.82-13.5L366.82-13.5Q368.42-13 369.57-12.15 370.72-11.3 371.35-10.13 371.97-8.95 371.97-7.3L371.97-7.3Q371.97-5.3 370.94-3.53 369.92-1.75 367.85-0.65 365.77 0.45 362.57 0.45ZM388.57 0.6L388.57 0.6Q384.57 0.6 381.79-0.9 379.02-2.4 377.57-5.05 376.12-7.7 376.12-11.15L376.12-11.15Q376.12-14.45 377.82-17.1 379.52-19.75 382.37-21.33 385.22-22.9 388.72-22.9L388.72-22.9Q393.42-22.9 396.44-20.18 399.47-17.45 400.37-12.3L400.37-12.3 383.37-6.9 381.82-10.7 394.12-14.85 392.67-14.2Q392.27-15.5 391.24-16.48 390.22-17.45 388.17-17.45L388.17-17.45Q386.62-17.45 385.44-16.73 384.27-16 383.64-14.68 383.02-13.35 383.02-11.55L383.02-11.55Q383.02-9.5 383.77-8.13 384.52-6.75 385.82-6.05 387.12-5.35 388.72-5.35L388.72-5.35Q389.87-5.35 390.94-5.75 392.02-6.15 393.07-6.8L393.07-6.8 396.17-1.6Q394.42-0.6 392.39 0 390.37 0.6 388.57 0.6Z" opacity="1" transform="matrix(1,0,0,1,0,0)" fill="#000000" class="undefined-text-0" data-fill-palette-color="primary" id="text-0"></path></svg></g></svg></g></svg></g></svg></g><g transform="matrix(1,0,0,1,125.9137766986474,0)"><svg viewBox="0 0 145.67004660270513 52.76938976930793" height="52.76938976930793" width="145.67004660270513"><g><svg xmlns="http://www.w3.org/2000/svg" xmlns:xlink="http://www.w3.org/1999/xlink" version="1.1" x="8" y="0" viewBox="0.021999999999999797 27.720999999999997 99.95299999999999 40.67600000000001" style="enable-background:new 0 0 100 100;" xml:space="preserve" height="52.76938976930793" width="129.67004660270513" class="icon-icon-0" data-fill-palette-color="accent" id="icon-0"><path d="M99.975 59.486c0 1.768-1.429 3.198-3.196 3.198H58.779c-0.901 0-1.714-0.371-2.296-0.975l-25.08-25.901L5.478 61.748c-0.58 0.58-1.378 0.937-2.261 0.937-1.766 0-3.195-1.431-3.195-3.198 0-0.883 0.358-1.682 0.935-2.259L29.18 28.989c0.579-0.577 1.379-0.937 2.261-0.937 0.901 0 1.715 0.373 2.295 0.973l7.348 7.592h19.7v-8.896h8.479v8.896H79.55c0.957 0 1.818 0.423 2.405 1.089l17.229 19.673C99.677 57.943 99.975 58.683 99.975 59.486zM22.589 58.375h6.974v-6.978h-6.974V58.375zM33.104 58.375h6.973v-6.978h-6.973V58.375zM22.589 68.361h6.974v-6.978h-6.974V68.361zM33.104 68.397h6.973v-6.979h-6.973V68.397z" fill="#000000" data-fill-palette-color="accent"></path></svg></g></svg></g><g><rect width="49.38065669864743" height="3.44341391273982" y="48.32597585656811" x="271.58382330135254" fill="#000000" data-fill-palette-color="secondary"></rect><rect width="49.38065669864743" height="3.44341391273982" y="48.32597585656811" x="76.53311999999997" fill="#000000" data-fill-palette-color="secondary"></rect></g></svg></g></svg></g><defs></defs></svg><rect width="395.52" height="111.86517296027547" fill="none" stroke="none" visibility="hidden"></rect></g></svg></g></svg>